<?xml version="1.0" encoding="UTF-8" standalone="no"?>
<!-- Created with Inkscape (http://www.inkscape.org/) -->

<svg
   xmlns:dc="http://purl.org/dc/elements/1.1/"
   xmlns:cc="http://creativecommons.org/ns#"
   xmlns:rdf="http://www.w3.org/1999/02/22-rdf-syntax-ns#"
   xmlns:svg="http://www.w3.org/2000/svg"
   xmlns="http://www.w3.org/2000/svg"
   xmlns:sodipodi="http://sodipodi.sourceforge.net/DTD/sodipodi-0.dtd"
   xmlns:inkscape="http://www.inkscape.org/namespaces/inkscape"
   width="210mm"
   height="297mm"
   viewBox="0 0 210 297"
   version="1.1"
   id="svg21759"
   inkscape:version="0.92.4 (5da689c313, 2019-01-14)"
   sodipodi:docname="sad bear colored.svg">
  <defs
     id="defs21753">
    <clipPath
       clipPathUnits="userSpaceOnUse"
       id="clipPath18">
      <path
         d="M 0,800 H 650 V 0 H 0 Z"
         id="path16"
         inkscape:connector-curvature="0" />
    </clipPath>
    <clipPath
       clipPathUnits="userSpaceOnUse"
       id="clipPath6722">
      <path
         d="M 0,800 H 650 V 0 H 0 Z"
         id="path6720"
         inkscape:connector-curvature="0" />
    </clipPath>
    <clipPath
       clipPathUnits="userSpaceOnUse"
       id="clipPath13902">
      <path
         d="M 0,800 H 650 V 0 H 0 Z"
         id="path13900"
         inkscape:connector-curvature="0" />
    </clipPath>
    <clipPath
       clipPathUnits="userSpaceOnUse"
       id="clipPath20442">
      <path
         d="M 0,800 H 650 V 0 H 0 Z"
         id="path20440"
         inkscape:connector-curvature="0" />
    </clipPath>
    <clipPath
       clipPathUnits="userSpaceOnUse"
       id="clipPath20662">
      <path
         d="M 0,800 H 650 V 0 H 0 Z"
         id="path20660"
         inkscape:connector-curvature="0" />
    </clipPath>
    <rect
       height="598.28"
       width="841.89"
       y="-3"
       id="a" />
  </defs>
  <sodipodi:namedview
     id="base"
     pagecolor="#ffffff"
     bordercolor="#666666"
     borderopacity="1.0"
     inkscape:pageopacity="0.0"
     inkscape:pageshadow="2"
     inkscape:zoom="0.40023349"
     inkscape:cx="-308.91658"
     inkscape:cy="695.45899"
     inkscape:document-units="mm"
     inkscape:current-layer="g86402"
     showgrid="false"
     showguides="true"
     inkscape:guide-bbox="true"
     inkscape:window-width="1920"
     inkscape:window-height="1001"
     inkscape:window-x="-9"
     inkscape:window-y="-9"
     inkscape:window-maximized="1"
     inkscape:snap-global="false">
    <sodipodi:guide
       position="176.69565,253.35726"
       orientation="0,1"
       id="guide22306"
       inkscape:locked="false" />
    <sodipodi:guide
       position="235.5942,43.94019"
       orientation="0,1"
       id="guide22308"
       inkscape:locked="false" />
  </sodipodi:namedview>
  <metadata
     id="metadata21756">
    <rdf:RDF>
      <cc:Work
         rdf:about="">
        <dc:format>image/svg+xml</dc:format>
        <dc:type
           rdf:resource="http://purl.org/dc/dcmitype/StillImage" />
        <dc:title></dc:title>
      </cc:Work>
    </rdf:RDF>
  </metadata>
  <g
     inkscape:label="Layer 1"
     inkscape:groupmode="layer"
     id="layer1">
    <g
       id="g86226"
       transform="translate(-78.063952,6.0768346)">
      <g
         id="g86402"
         transform="translate(-1.5748999,-15.987556)">
        <g
           id="g86422"
           transform="translate(48.033888,-0.87692802)">
          <path
             inkscape:connector-curvature="0"
             style="fill:#000000;stroke-width:0.04657437"
             d="m 143.70297,71.755662 c -1.09522,0.01 -2.10474,0.150467 -2.89924,0.424695 -0.79892,0.275743 -1.84225,0.889635 -2.69372,1.584791 -1.20632,0.98485 -2.41901,2.394493 -2.92682,3.402112 -0.41645,0.82632 -0.50134,2.342716 -0.2152,3.844432 0.0502,0.263676 0.0913,0.501389 0.0913,0.528453 0,0.03416 -0.4605,0.04309 -1.48501,0.02928 -1.96215,-0.02645 -3.6147,0.07988 -4.95394,0.318663 -1.38591,0.247118 -4.08859,0.997681 -5.97301,1.658697 -4.01652,1.408906 -6.81697,2.988773 -10.1748,5.739655 -1.82502,1.495143 -3.8949,3.509648 -5.05312,4.918386 -0.52212,0.635039 -1.27027,1.752027 -1.70617,2.54732 -0.60187,1.098063 -1.55532,3.160036 -1.93501,4.184424 -0.0664,0.1791 -0.13747,0.32548 -0.15777,0.32548 -0.0203,0 -0.16988,-0.14897 -0.3323,-0.33116 -0.28818,-0.32327 -0.85607,-0.82584 -1.18738,-1.050671 -0.31118,-0.211175 -0.81847,-0.441163 -1.17402,-0.532142 -2.554849,-0.303332 -2.870436,-0.009 -4.457317,0.285965 -1.261297,0.365151 -2.034739,0.780318 -2.796617,1.501508 -1.75024,1.65674 -3.417571,5.05114 -3.816573,7.76959 -0.10043,0.6842 -0.07089,1.90168 0.06711,2.76649 0.391102,2.45149 1.637007,5.19532 2.864841,6.30931 0.903474,0.8197 2.903156,1.61443 5.196128,2.06492 l 0.300747,0.0591 0.357611,1.79145 c 0.97924,4.90809 1.87406,8.52324 2.65648,10.73138 0.82854,2.33833 2.24514,4.17449 4.19665,5.43974 0.67505,0.43768 2.32798,1.23697 3.19174,1.54358 0.87215,0.30957 2.25117,0.44715 3.58689,0.3576 0.45393,-0.0305 1.01283,-0.0742 1.24226,-0.0972 0.2294,-0.023 0.4246,-0.0345 0.43378,-0.0253 0.009,0.009 -0.12234,0.41196 -0.29251,0.89486 -0.17017,0.48293 -0.36872,1.04558 -0.44091,1.25051 -0.0722,0.20492 -0.163,0.4669 -0.20211,0.58217 -0.0391,0.11528 -0.24238,0.70225 -0.45169,1.30422 -0.46899,1.34878 -1.97469,5.86879 -2.39695,7.19566 -0.17119,0.53793 -0.39565,1.23986 -0.49889,1.56006 -0.30252,0.93833 -0.61928,1.9715 -1.37102,4.47125 -0.29321,0.97504 -1.16842,4.05808 -1.45431,5.12307 -1.03405,3.85204 -1.68447,6.87498 -2.05441,9.54797 -0.36231,2.61799 -0.61831,5.08216 -0.79111,7.61495 -0.22226,3.25743 -0.25773,4.45528 -0.25499,8.61616 0.002,3.66707 0.0538,5.58592 0.20838,7.82444 0.0248,0.35863 0.0661,0.98733 0.0924,1.39718 0.0261,0.40986 0.0682,0.96532 0.0933,1.23429 0.0251,0.26897 0.0877,0.97118 0.13872,1.56034 0.0813,0.93692 0.15133,1.60373 0.32776,3.1204 0.091,0.78258 0.41689,2.88553 0.5077,3.27675 0.0276,0.11889 0.13488,0.64606 0.23851,1.17118 0.10359,0.52512 0.2273,1.11182 0.27488,1.30395 0.0475,0.19211 0.15381,0.64284 0.23595,1.00147 0.0822,0.35862 0.18748,0.78807 0.23423,0.95455 0.0468,0.16651 0.17128,0.63825 0.27659,1.04811 0.10527,0.40985 0.23334,0.89181 0.28455,1.07111 0.0511,0.17933 0.12509,0.4413 0.16402,0.58218 0.0681,0.24596 0.19876,0.68909 0.52903,1.79317 0.0843,0.28177 0.25253,0.82673 0.3741,1.21097 0.12157,0.38424 0.28798,0.91871 0.36954,1.18768 0.0815,0.26896 0.1781,0.56782 0.21463,0.66432 0.0365,0.0965 0.0859,0.25376 0.10976,0.34937 0.18855,0.66647 0.40769,1.17343 0.57364,1.81221 0.004,0.0558 0.025,0.0913 0.0452,0.0787 0.0202,-0.0125 0.0367,0.0112 0.0367,0.0515 0,0.0408 0.14647,0.51292 0.32578,1.04923 0.17931,0.5363 0.32606,1.01766 0.32606,1.06969 0,0.052 0.0178,0.0946 0.0392,0.0946 0.0215,0 0.0667,0.11548 0.10067,0.2567 0.0339,0.14122 0.0886,0.27921 0.12138,0.30644 0.0328,0.0272 0.14593,0.32544 0.25158,0.66291 0.10561,0.33747 0.24184,0.71846 0.30246,0.84655 0.15407,0.32553 0.68911,2.05058 1.11973,3.60963 0.32849,1.18927 0.656,2.80278 1.0913,5.37919 0.58258,3.4483 0.80056,4.41024 1.25645,5.54236 0.10314,0.25615 0.18744,0.49378 0.18791,0.52816 7.2e-4,0.091 0.37602,0.78846 0.48836,0.90738 0.04,0.0424 0.1457,0.17525 0.25641,0.31839 -1.31298,1.44307 -2.06371,3.28757 -1.86138,5.54804 h 24.98598 c 0.0239,-2.3012 -0.85304,-4.18783 -2.26164,-5.6572 0.23847,-0.36937 0.55679,-0.88498 0.74536,-1.22008 0.51615,-0.9172 0.82974,-1.585 0.98612,-2.09959 0.0781,-0.2572 0.16969,-0.53174 0.20325,-0.61005 0.14949,-0.34868 0.36079,-2.30295 0.42412,-3.92261 0.0183,-0.4683 0.0475,-0.86031 0.0648,-0.87099 0.0173,-0.0112 0.17435,0.0101 0.34907,0.047 1.20105,0.25127 3.66281,0.66852 4.37971,0.7422 1.04814,0.10774 1.56399,0.12872 3.44646,0.14044 l 2.14225,0.0133 0.0337,0.15692 c 0.0185,0.0862 0.0991,0.56535 0.17908,1.06486 0.08,0.49951 0.19599,1.15748 0.25755,1.46199 0.0615,0.30452 0.112,0.61901 0.112,0.69873 4.9e-4,0.16497 0.16374,0.88902 0.23225,1.02961 0.0249,0.0512 0.12043,0.37622 0.21206,0.72205 0.36609,1.38155 0.87121,2.81375 1.25505,3.5866 -0.89428,1.29983 -1.36584,2.86937 -1.20046,4.71684 h 24.98596 c 0.0241,-2.31923 -0.8669,-4.21731 -2.2949,-5.69159 0.006,-0.0101 0.0147,-0.0256 0.0196,-0.0352 0.0672,-0.13249 0.16978,-0.31168 0.228,-0.39825 0.27378,-0.40725 0.72622,-2.25896 1.01596,-4.15799 0.3359,-2.2014 0.75838,-4.3416 1.18142,-5.98467 0.0363,-0.1409 0.10819,-0.42388 0.15976,-0.62881 0.33569,-1.33325 1.58321,-5.23204 1.76501,-5.51621 0.04,-0.0624 0.16421,-0.37701 0.27602,-0.69872 0.11178,-0.32172 0.24344,-0.63974 0.29251,-0.70669 0.0491,-0.0669 0.10404,-0.20103 0.12224,-0.2982 0.0419,-0.22324 0.13434,-0.40393 0.18364,-0.35932 0.0208,0.0188 0.025,0.0119 0.0101,-0.0154 -0.029,-0.051 0.0539,-0.4448 0.10236,-0.4861 0.015,-0.0128 0.11774,-0.30629 0.22827,-0.6521 0.11054,-0.34582 0.22019,-0.67056 0.24362,-0.72176 0.0702,-0.15376 0.14275,-0.35699 0.23281,-0.65211 0.047,-0.15371 0.18223,-0.55192 0.30076,-0.88493 0.11851,-0.33301 0.25845,-0.74173 0.311,-0.90823 0.0525,-0.1665 0.23763,-0.73248 0.41131,-1.2576 0.32858,-0.99339 0.56514,-1.733 0.74451,-2.32872 0.0579,-0.19212 0.13607,-0.4436 0.17397,-0.55886 0.0379,-0.11528 0.13073,-0.42948 0.20637,-0.69845 0.0757,-0.26897 0.15592,-0.55195 0.17853,-0.62881 0.84219,-2.86331 1.6542,-6.46092 2.00267,-8.87255 0.05,-0.34581 0.11188,-0.76504 0.1373,-0.93154 0.0255,-0.1665 0.059,-0.4492 0.0748,-0.62851 0.0157,-0.17932 0.0474,-0.45179 0.0703,-0.6055 0.0908,-0.61309 0.28598,-3.62243 0.37437,-5.77545 0.0522,-1.27374 0.0712,-7.47721 0.0246,-8.03396 -0.014,-0.16651 -0.0376,-0.66946 -0.0526,-1.11774 -0.15289,-4.57262 -0.69524,-10.6131 -1.35256,-15.06673 -0.56947,-3.85881 -0.80572,-5.26032 -1.39033,-8.24377 -0.65037,-3.319 -1.66769,-7.23533 -2.9942,-11.52704 -0.1148,-0.37143 -0.32065,-1.04213 -0.45738,-1.49041 -0.13672,-0.44828 -0.3468,-1.11898 -0.46676,-1.49041 -0.11996,-0.37143 -0.31389,-0.97942 -0.43095,-1.35084 -0.30491,-0.96743 -2.06844,-6.23745 -2.54818,-7.61467 -0.22307,-0.6404 -0.54764,-1.57309 -0.72119,-2.07259 -0.17354,-0.49952 -0.48744,-1.3902 -0.69758,-1.97936 -0.21016,-0.58916 -0.53865,-1.51135 -0.73,-2.04928 -0.19136,-0.53793 -0.44032,-1.22964 -0.55319,-1.53703 -0.11286,-0.30739 -0.37639,-1.03062 -0.58558,-1.60697 -0.81093,-2.23421 -1.40532,-3.85121 -1.62632,-4.42434 -0.074,-0.19211 -0.29112,-0.76858 -0.48211,-1.2809 -0.19098,-0.51233 -0.60146,-1.5995 -0.91248,-2.416 l -0.5657,-1.48472 0.53243,-0.89061 c 0.73439,-1.22872 0.89283,-1.5168 1.41765,-2.57546 0.71303,-1.43836 1.0904,-2.38141 1.42388,-3.55932 0.3384,-1.19517 0.37949,-1.53524 0.37894,-3.11613 -2.4e-4,-0.75567 -0.0274,-1.65686 -0.06,-2.00267 -0.15922,-1.68492 -0.51325,-3.57948 -0.9574,-5.12307 -0.66992,-2.32809 -1.61114,-4.447257 -2.6997,-6.077922 -0.92033,-1.378658 -1.95155,-2.556837 -4.01358,-4.585233 -2.30792,-2.2703 -3.40027,-3.30437 -4.67676,-4.427177 -0.39315,-0.345811 -0.73829,-0.650387 -0.76696,-0.677125 -0.0818,-0.07624 -2.28835,-1.962272 -2.74175,-2.343499 -0.22413,-0.188461 -0.40764,-0.359836 -0.40764,-0.380633 0,-0.02085 0.11717,-0.390432 0.2601,-0.821538 0.58189,-1.755088 0.84448,-3.337403 0.7212,-4.345027 -0.17851,-1.458867 -1.40624,-3.579777 -3.00727,-5.195553 -1.25266,-1.264197 -2.45244,-1.980003 -4.14433,-2.472273 -1.41657,-0.412158 -2.96646,-0.615146 -4.37461,-0.602363 z"
             id="path86351" />
          <path
             inkscape:connector-curvature="0"
             style="fill:#f9f9f9;stroke-width:0.04657437"
             d="m 143.83828,73.173872 c 1.26106,0.0024 2.30887,0.136086 3.49307,0.445446 1.72826,0.451494 2.64467,0.967645 3.84528,2.165549 0.65179,0.650319 1.01204,1.079804 1.42675,1.701341 0.53716,0.80507 0.84393,1.392415 1.07083,2.049284 0.38915,1.126607 0.13621,2.67122 -0.91592,5.592677 -0.0862,0.239528 -0.0942,0.311673 -0.0517,0.469325 0.058,0.215447 0.14649,0.303489 1.16748,1.158672 0.39649,0.332111 1.18307,1.002005 1.74769,1.488719 1.37009,1.181027 2.06767,1.7988 3.07378,2.721284 2.75847,2.527285 5.70124,5.26496 8.28611,9.799551 0.76091,1.65205 1.23882,3.13378 1.69964,5.27032 0.32542,1.50888 0.55843,4.00762 0.50287,5.39482 -0.0598,1.49069 -0.52131,3.03349 -1.54869,5.17765 -0.46322,0.96671 -1.35098,2.54465 -1.95833,3.48056 -0.20133,0.31025 -0.30982,0.52779 -0.32748,0.65723 -0.0275,0.20114 -0.0548,0.11804 0.79624,2.40575 0.11912,0.32021 0.36037,0.95941 0.53613,1.42049 0.30116,0.79005 0.97187,2.58629 1.39148,3.72617 0.10371,0.28179 0.32369,0.87896 0.48895,1.32725 0.16525,0.44828 0.44001,1.2027 0.61033,1.6766 0.17032,0.4739 0.34204,0.94564 0.38176,1.0481 0.0988,0.25477 0.944,2.6098 1.01967,2.84096 0.0335,0.10247 0.16964,0.49019 0.30246,0.86162 1.2888,3.60434 3.26767,9.44913 4.29698,12.69141 0.33014,1.03993 0.63603,2.01782 0.80135,2.56181 0.0934,0.30739 0.21974,0.71583 0.28085,0.90796 0.15157,0.47638 0.92233,3.10228 1.04583,3.563 0.0549,0.20493 0.12859,0.47742 0.16373,0.60548 0.99953,3.64234 1.51335,5.88733 2.11609,9.24496 0.10348,0.57637 0.20947,1.16332 0.23537,1.3042 0.44574,2.42427 1.09211,7.10867 1.39605,10.11766 0.0498,0.49342 0.112,1.10662 0.13844,1.36278 0.16688,1.6201 0.3712,4.51093 0.5003,7.07939 0.1037,2.06221 0.12021,9.28615 0.0253,11.10804 -0.25256,4.84902 -0.51799,6.93475 -1.39177,10.94486 -0.23098,1.06003 -0.98317,3.93076 -1.32413,5.05342 -0.0778,0.25616 -0.20522,0.67538 -0.28313,0.93154 -0.60037,1.97401 -1.59385,4.92904 -2.78695,8.29009 -0.78142,2.20127 -1.46561,4.21793 -1.95178,5.75215 -0.68122,2.14973 -1.36471,5.14859 -1.82073,7.98735 -0.41296,2.57068 -0.62522,3.60679 -1.09614,4.60228 -2.46512,-1.89304 -5.91847,-2.85056 -9.13039,-2.85547 -3.65072,0.002 -7.78865,1.18295 -10.26915,3.61532 -0.73324,-1.74313 -1.44327,-4.63812 -1.85969,-7.66356 -0.10236,-0.74338 -0.14866,-0.89031 -0.33344,-1.05775 -0.25299,-0.22918 -0.19177,-0.22418 -2.78723,-0.23083 -3.40203,-0.008 -4.00034,-0.0713 -7.80656,-0.81869 -1.60152,-0.31447 -1.67962,-0.31746 -1.9586,-0.0724 -0.26236,0.23036 -0.29509,0.35741 -0.29564,1.16123 -9.2e-4,1.30854 -0.113,2.8383 -0.28342,3.87882 -0.15838,0.96713 -0.3749,1.6395 -0.77263,2.39865 -0.34761,0.66346 -0.66301,1.20723 -0.98157,1.69736 -2.46933,-1.92812 -5.95722,-2.90312 -9.19891,-2.90805 -3.3276,0.002 -7.0601,0.9831 -9.57326,2.99874 -0.12056,-0.18172 -0.22923,-0.37016 -0.3326,-0.57707 -0.61795,-1.2369 -0.9208,-2.38343 -1.39718,-5.28709 -0.8466,-5.16027 -1.1307,-6.2549 -3.35548,-12.92904 -1.19571,-3.587 -1.53707,-4.63567 -1.97623,-6.07224 -0.19577,-0.6404 -0.41745,-1.3636 -0.49263,-1.60697 -0.8221,-2.66106 -1.73888,-6.62664 -2.18545,-9.45444 -0.41796,-2.64661 -0.74086,-6.32269 -0.9901,-11.27091 -0.0808,-1.6017 -0.0812,-9.05575 -5.6e-4,-10.59579 0.25387,-4.85093 0.5627,-8.07358 1.10438,-11.52704 0.36205,-2.30826 1.07653,-5.5004 1.91794,-8.56981 0.11588,-0.42267 0.29027,-1.06186 0.38776,-1.42049 0.24169,-0.8892 0.61728,-2.20324 0.83858,-2.93421 0.10078,-0.33301 0.35281,-1.17145 0.56001,-1.86309 0.98328,-3.28236 2.69592,-8.53116 4.09543,-12.55182 0.18278,-0.52513 0.38186,-1.10131 0.4426,-1.28063 0.0608,-0.17931 0.32173,-0.92052 0.5799,-1.64704 0.30855,-0.86828 0.46952,-1.38706 0.46905,-1.51372 -4.9e-4,-0.24018 -0.17938,-0.63306 -0.34851,-0.76611 -0.20727,-0.16302 -0.38323,-0.18859 -0.81727,-0.11854 -1.77531,0.28651 -3.73793,0.32146 -4.85698,0.0867 -0.76217,-0.15989 -2.72732,-1.08927 -3.61134,-1.70788 -1.37759,-0.96401 -2.37372,-2.19542 -3.07918,-3.80662 -0.60756,-1.38761 -1.49294,-4.61767 -2.3057,-8.41147 -0.14268,-0.66601 -0.3001,-1.39945 -0.34993,-1.62999 -0.0498,-0.23055 -0.21737,-1.0795 -0.372101,-1.88641 -0.154742,-0.80689 -0.302405,-1.54437 -0.328337,-1.63908 -0.09401,-0.34335 -0.446384,-0.51474 -1.419059,-0.68991 -0.963587,-0.17354 -2.469854,-0.63147 -3.226438,-0.981 -1.174486,-0.54262 -1.658366,-1.0509 -2.405183,-2.52629 -0.87825,-1.73503 -1.394847,-3.86908 -1.316726,-5.43889 0.128781,-2.58785 2.164606,-6.73752 3.87456,-7.89752 0.612201,-0.4153 1.347345,-0.71276 2.258791,-0.9142 0.975455,-0.21557 1.291217,-0.25007 2.217006,-0.24248 0.829067,0.007 0.897127,0.0141 1.172597,0.12678 0.45392,0.18555 0.777,0.39996 1.20614,0.80051 0.38761,0.36175 1.02121,1.09884 1.30906,1.5231 0.40343,0.5946 1.1208,0.44177 1.33719,-0.28484 0.075,-0.25189 0.8896,-2.29397 1.15185,-2.887585 0.707,-1.600249 1.5866,-3.220958 2.24855,-4.142915 0.41634,-0.579869 1.19158,-1.454369 2.17437,-2.452372 1.19773,-1.218651 1.7487,-2.20393 3.85694,-3.472897 0.50954,-0.420904 2.19986,-1.620452 3.08203,-2.187158 2.40096,-1.542388 6.30591,-3.066983 10.52868,-4.111076 1.11366,-0.275348 1.94311,-0.412036 3.01637,-0.497185 0.74117,-0.05875 2.89064,-0.07938 4.49569,-0.04294 l 1.02592,0.02332 0.14696,-0.116541 c 0.0808,-0.06402 0.17709,-0.189784 0.21377,-0.27944 0.13554,-0.331158 0.13428,-0.48398 -0.009,-1.103525 -0.0758,-0.328114 -0.17206,-0.82641 -0.21377,-1.107506 -0.0852,-0.574868 -0.0992,-1.68221 -0.0261,-2.07373 0.22299,-1.195447 2.30492,-3.450444 4.07696,-4.41581 1.05364,-0.573986 1.91549,-0.760891 3.49308,-0.75814 z"
             id="path86349" />
          <path
             inkscape:connector-curvature="0"
             style="fill:#000000;stroke-width:0.04657437"
             d="m 143.87638,74.994604 c -1.41075,0.02823 -2.73,0.490899 -3.82736,1.369033 -0.8044,0.643689 -1.09425,1.182483 -1.29201,2.400638 -0.10112,0.622801 -0.097,0.712902 0.12423,2.726975 0.0528,0.481016 0.14004,0.742466 0.27091,0.811583 0.0415,0.02186 0.22207,0.04731 0.40139,0.05662 l 0.32605,0.01682 0.0154,-0.605489 c 0.008,-0.333003 -0.009,-0.806033 -0.0389,-1.05122 -0.0301,-0.245188 -0.0575,-0.727144 -0.0614,-1.071122 -0.0112,-1.018647 0.2171,-1.748835 0.6902,-2.210745 0.80294,-0.78392 2.0354,-1.294123 3.24605,-1.344019 2.56706,-0.105733 5.56708,1.580592 6.53645,3.674442 0.18017,0.389129 0.22727,0.60305 0.30444,1.381539 0.0624,0.629364 0.0285,1.078267 -0.12507,1.651027 -0.12079,0.450703 -0.19162,0.809463 -0.25441,1.289439 -0.0673,0.514081 -0.0655,0.51842 0.24957,0.646419 0.10807,0.04395 0.20378,0.08083 0.21264,0.0824 0.009,0.0011 0.076,-0.03307 0.14952,-0.07646 0.16737,-0.09888 0.38004,-0.580721 0.64585,-1.463125 0.16249,-0.539384 0.19547,-0.720334 0.22059,-1.216094 0.034,-0.669505 -0.0433,-1.60819 -0.17483,-2.124615 -0.25291,-0.992887 -1.25101,-2.32861 -2.35941,-3.157926 -0.65837,-0.492612 -1.77251,-1.065802 -2.64966,-1.363346 -0.88445,-0.300031 -1.76366,-0.439644 -2.61012,-0.422706 z"
             id="path86347" />
          <path
             inkscape:connector-curvature="0"
             style="fill:#000000;stroke-width:0.04657437"
             d="m 98.912666,102.9469 c -0.05845,2.5e-4 -0.117135,0.002 -0.176245,0.007 -1.300423,0.0866 -3.047948,1.22298 -3.916356,2.54703 -0.909071,1.38607 -1.324698,2.87093 -1.323262,4.72737 7.79e-4,1.00913 0.0684,1.49256 0.328042,2.34918 0.276158,0.91106 0.809529,1.90935 1.237131,2.31565 0.356904,0.33911 1.262688,0.96745 1.759612,1.22036 0.425385,0.21648 0.665226,0.30347 1.16436,0.42213 0.345745,0.0822 0.744038,0.16628 0.884925,0.18705 0.469922,0.0693 0.737013,0.0575 0.831483,-0.0369 0.113057,-0.11305 0.176127,-0.55679 0.09096,-0.63989 -0.09313,-0.0908 -0.810108,-0.35291 -1.714134,-0.62623 -0.730992,-0.22102 -1.160843,-0.44964 -1.84773,-0.98273 -0.482784,-0.37466 -0.75827,-0.72654 -1.037862,-1.3261 -0.432942,-0.9284 -0.596882,-1.70998 -0.6035,-2.8765 -0.0074,-1.34978 0.235099,-2.42588 0.79651,-3.53031 0.477372,-0.93911 1.054055,-1.56061 1.95463,-2.10643 1.027541,-0.62277 1.679013,-0.68442 2.79378,-0.26408 0.24697,0.0932 1.02087,0.56662 1.39689,0.85451 0.26626,0.20386 1.36734,0.86874 1.44237,0.87099 0.0154,4.9e-4 0.0954,-0.14569 0.17794,-0.32463 0.10236,-0.22203 0.13971,-0.3587 0.11798,-0.43067 -0.0455,-0.1506 -0.23198,-0.3389 -0.58019,-0.58558 -0.1665,-0.11797 -0.54643,-0.38805 -0.84427,-0.6001 -0.68663,-0.48885 -1.01149,-0.67169 -1.54584,-0.87042 -0.572055,-0.21275 -0.977869,-0.30223 -1.387226,-0.30019 z"
             id="path86345" />
          <path
             inkscape:connector-curvature="0"
             style="fill:#000000;stroke-width:0.04657437"
             d="m 146.43848,103.6408 c -0.27816,-0.003 -0.54623,0.0187 -0.76042,0.0688 -0.80375,0.18783 -1.54598,0.75626 -1.88583,1.44407 -0.22495,0.45525 -0.36876,1.14125 -0.32805,1.56489 0.0994,1.03458 0.52631,1.93255 1.28177,2.69571 0.72522,0.73265 1.58963,1.18178 2.49245,1.29541 1.00481,0.12646 1.93761,-0.17816 2.60928,-0.85224 0.22686,-0.22766 0.37485,-0.42784 0.48299,-0.65324 0.26833,-0.55943 0.30561,-0.73257 0.30671,-1.42162 7.3e-4,-0.58789 -0.009,-0.65967 -0.15435,-1.10267 -0.42025,-1.28356 -1.37078,-2.25388 -2.76962,-2.82732 -0.3194,-0.13094 -0.81135,-0.20635 -1.27493,-0.21178 z"
             id="path86343" />
          <path
             inkscape:connector-curvature="0"
             style="fill:#000000;stroke-width:0.04657437"
             d="m 134.29258,112.99917 c -0.86562,4.8e-4 -1.90681,0.34456 -2.723,0.8997 -0.35565,0.24191 -0.8948,0.7865 -1.12286,1.13423 -0.63898,0.97428 -0.43336,2.025 0.4844,2.47682 0.16373,0.0806 0.41019,0.16849 0.54778,0.195 0.50597,0.0975 1.34143,0.0461 1.87872,-0.11569 0.12485,-0.0375 0.24492,-0.0571 0.26694,-0.0435 0.022,0.0136 0.14657,0.23774 0.27659,0.49832 0.13001,0.26058 0.28132,0.52294 0.33628,0.58275 l 0.0998,0.10864 -0.18619,0.14754 c -0.57762,0.45688 -1.12634,1.0963 -1.33578,1.55665 -0.12652,0.27807 -0.26869,0.78059 -0.27034,0.95429 -4.9e-4,0.0448 0.0288,0.0815 0.065,0.0815 0.16384,0 0.8124,-0.51656 1.45318,-1.15754 0.93088,-0.93118 1.09825,-1.00972 2.64368,-1.23997 0.86243,-0.12851 1.26394,-0.23278 1.72266,-0.44744 0.45436,-0.21262 0.46107,-0.24286 0.0824,-0.38319 -0.69844,-0.25887 -1.44822,-0.2601 -2.73095,-0.003 -0.67539,0.13484 -0.72176,0.13646 -0.72176,0.0253 0,-0.0474 -0.11524,-0.32098 -0.25613,-0.60805 -0.14088,-0.28707 -0.25611,-0.53662 -0.25611,-0.55432 4e-5,-0.0177 0.089,-0.0885 0.19783,-0.15748 1.02701,-0.65104 1.68793,-1.68715 1.60185,-2.51066 -0.0944,-0.90284 -0.86077,-1.43979 -2.05411,-1.43896 z"
             id="path86341" />
          <path
             inkscape:connector-curvature="0"
             style="fill:#000000;stroke-width:0.04657437"
             d="m 118.22778,115.90466 c -0.43894,0.007 -0.86834,0.12951 -1.29911,0.3704 -1.19325,0.66729 -1.92015,2.25287 -1.7508,3.81942 0.19734,1.82555 1.29207,3.19848 2.8114,3.52577 0.30374,0.0655 1.03825,0.016 1.34061,-0.0901 1.5691,-0.55073 2.47913,-2.17922 2.27413,-4.06928 -0.0302,-0.27867 -0.10875,-0.67814 -0.17453,-0.88778 -0.34458,-1.09823 -0.99301,-1.91815 -1.84633,-2.33468 -0.46809,-0.22849 -0.91645,-0.33979 -1.35537,-0.33373 z"
             id="path86339" />
          <path
             inkscape:connector-curvature="0"
             style="fill:#000000;stroke-width:0.04657437"
             d="m 156.25621,161.90338 c -0.0661,0.003 -0.19505,0.24434 -0.44686,0.83404 -0.48204,1.12884 -0.60274,1.5728 -1.05151,3.8686 -0.77835,3.98192 -1.28273,5.42069 -3.82824,10.92156 -1.52294,3.29116 -2.08054,4.72551 -2.56692,6.60239 -0.51744,1.99673 -0.7107,3.73171 -0.66917,6.01026 0.0256,1.40308 0.0931,2.01718 0.33259,3.02659 0.43439,1.83055 1.01547,2.5702 2.16328,2.75399 0.21016,0.0336 0.38845,0.0692 0.39626,0.0789 0.008,0.0101 0.0618,0.16891 0.11997,0.35335 0.11631,0.36868 0.40149,0.79929 0.68594,1.03588 0.098,0.0815 0.33548,0.21968 0.52759,0.30728 0.32607,0.14867 0.38182,0.1594 0.83831,0.16033 l 0.48895,9.2e-4 0.0933,0.14525 c 0.12796,0.19965 0.71209,0.576 1.01115,0.65153 0.13546,0.0343 0.40904,0.0588 0.60776,0.0546 l 0.36129,-0.008 0.0762,0.14839 c 0.23711,0.46076 0.76585,0.84564 1.34344,0.97787 0.38489,0.0881 1.48995,-0.0101 2.28865,-0.20238 2.12752,-0.51082 4.3217,-1.06989 6.15267,-2.35601 2.2495,-1.70657 3.48338,-4.38095 4.97213,-6.72434 1.15453,-2.0701 2.62623,-4.8395 3.02176,-5.68593 0.37601,-0.80464 0.6342,-1.81244 0.6342,-2.47626 6e-5,-0.22071 -0.0172,-0.31457 -0.058,-0.3141 -0.0759,4.8e-4 -0.58729,0.49326 -0.95059,0.91591 -0.44666,0.51964 -0.63267,0.82171 -1.35509,2.20022 -1.1544,2.20279 -1.33732,2.54477 -1.98277,3.70657 -1.43375,2.58068 -2.54926,4.36302 -3.37312,5.38971 -2.3762,2.89103 -4.6804,3.42336 -6.99354,3.88139 -0.34817,0.0655 -0.84995,0.15969 -1.11518,0.2095 -0.8582,0.16118 -1.17093,0.1037 -1.38012,-0.25329 -0.19247,-0.32845 -0.194,-0.50803 -0.0101,-1.05718 0.0893,-0.26728 0.22826,-0.59206 0.3087,-0.72147 0.16353,-0.26302 0.21655,-0.49257 0.17029,-0.73909 -0.0366,-0.19498 -0.10729,-0.20866 -0.40735,-0.0779 -0.13124,0.0572 -0.37458,0.26487 -0.69589,0.59384 -0.48714,0.49873 -0.6923,0.76655 -0.76212,0.99493 -0.0196,0.0641 -0.0639,0.14904 -0.0987,0.18875 -0.1596,0.35234 -0.34015,0.37648 -0.56626,-0.1137 -0.36963,-0.3194 -0.32354,-0.79184 0.16601,-1.70503 0.37808,-0.70529 0.45596,-0.87821 0.52106,-1.15754 0.0676,-0.28995 0.0407,-0.85428 -0.0497,-1.04667 -0.0558,-0.11867 -0.078,-0.12848 -0.22741,-0.10124 -0.49005,0.0895 -0.94733,0.59175 -1.5143,1.66298 -0.19458,0.37034 -1.20717,2.6219 -1.46738,0.66575 -7.3e-4,-0.33054 0.16838,-0.84222 0.59554,-1.80169 0.33721,-0.75745 0.45326,-1.24761 0.41161,-1.74028 -0.0465,-0.5505 -0.0822,-0.57657 -0.47472,-0.35137 -0.27489,0.15767 -0.60918,0.47572 -0.81642,0.77691 -0.36302,0.52763 -0.98556,2.06161 -1.08988,2.68547 -0.016,0.0961 -0.05,0.17483 -0.0756,0.17483 -0.0909,0 -0.50576,-0.43145 -0.5978,-0.62168 -0.13634,-0.28171 -0.49814,-1.58613 -0.62795,-2.26363 -0.19026,-0.99289 -0.2289,-1.5864 -0.20014,-3.08202 0.0459,-2.38451 0.29802,-3.94719 0.95998,-5.94661 0.33202,-1.00279 0.61617,-1.68391 1.63539,-3.92145 1.01254,-2.22285 1.22894,-2.70176 1.54699,-3.42316 0.31344,-0.71098 0.71537,-1.68056 0.94604,-2.28209 0.0589,-0.1537 0.15263,-0.39496 0.20808,-0.53584 0.75807,-1.92648 1.42439,-4.45439 1.95179,-7.40518 0.18071,-1.01115 0.22516,-2.12078 0.11597,-2.88758 -0.0605,-0.42511 -0.17371,-0.97805 -0.19984,-0.97674 z"
             id="path86337" />
          <path
             inkscape:connector-curvature="0"
             style="fill:#000000;stroke-width:0.04657437"
             d="m 127.90281,163.11294 c -0.19784,0 -0.33911,2.06736 -0.20951,3.06497 0.12551,0.96618 0.62994,3.41159 0.99124,4.80554 0.49394,1.90561 1.2579,4.09235 2.09619,6.00032 0.34592,0.78729 1.25446,2.80255 1.48417,3.29182 2.20173,4.7201 2.37699,5.00039 2.79805,10.52727 0.002,1.19971 -0.0508,1.76249 -0.2658,2.86286 -0.14088,0.72111 -0.44134,1.80324 -0.57819,2.08226 -0.13484,0.27486 -0.45887,0.61913 -0.58275,0.61913 -0.0308,0 -0.0804,-0.12892 -0.112,-0.29109 -0.0579,-0.29701 -0.29983,-0.9899 -0.49179,-1.40883 -0.0586,-0.12808 -0.17897,-0.39006 -0.2672,-0.58218 -0.29058,-0.63265 -0.81482,-1.19957 -1.29257,-1.39746 -0.1355,-0.0562 -0.15844,-0.0541 -0.21234,0.0196 -0.0333,0.0454 -0.0747,0.21641 -0.0922,0.37978 -0.0525,0.4904 0.0682,0.98955 0.44602,1.84604 0.18069,0.40957 0.37992,0.9024 0.44289,1.09528 0.26067,0.79854 0.0612,1.4171 -0.50032,1.55182 -0.12969,0.031 -0.24678,0.0378 -0.26663,0.0151 -0.0195,-0.0223 -0.0613,-0.1661 -0.0929,-0.3198 -0.0841,-0.40848 -0.21029,-0.73115 -0.50146,-1.28092 -0.55734,-1.0523 -1.21296,-1.71766 -1.64308,-1.66721 -0.0963,0.0113 -0.12279,0.0466 -0.1498,0.20012 -0.11167,0.63432 -0.0249,0.99165 0.48923,2.01744 l 0.42753,0.85309 v 0.36443 c 0,0.49651 -0.04,0.53878 -0.63647,0.67257 -0.11481,0.0258 -0.13783,0.002 -0.31468,-0.32008 -0.13655,-0.2488 -0.32034,-0.47553 -0.64472,-0.79567 -0.7946,-0.78419 -1.22207,-0.92739 -1.22207,-0.40933 0,0.24645 0.0739,0.43493 0.29819,0.76097 0.17417,0.25318 0.40054,0.90142 0.40054,1.14702 0,0.0774 -0.0577,0.25324 -0.1282,0.39058 -0.22208,0.433 -0.50829,0.50067 -1.39065,0.32948 -0.25332,-0.0491 -0.71199,-0.1358 -1.01937,-0.19245 -0.79459,-0.14646 -1.69292,-0.35093 -2.13798,-0.48667 -0.21008,-0.0641 -0.4509,-0.11626 -0.53527,-0.11626 -0.0844,0 -0.20917,-0.0383 -0.27717,-0.0852 -0.068,-0.0469 -0.37513,-0.21693 -0.68252,-0.37779 -1.40787,-0.73675 -2.75854,-1.82956 -3.54367,-2.86713 -1.19485,-1.579 -2.95167,-4.57464 -4.97127,-8.47655 -0.89523,-1.72961 -1.13188,-2.12811 -1.61607,-2.72101 -0.42632,-0.52206 -0.9017,-0.98158 -1.01539,-0.98158 -0.0554,0 -0.061,0.0729 -0.0335,0.43067 0.0466,0.60724 0.14351,1.081 0.33372,1.63169 0.33196,0.96106 2.91342,5.81346 4.34161,8.16076 0.70778,1.16324 0.76271,1.251 1.09273,1.74653 1.44436,2.16867 2.6337,3.28305 4.49569,4.21284 1.01175,0.50522 2.11098,0.86507 3.55448,1.1635 0.44448,0.0919 0.94442,0.20134 1.11091,0.24305 0.16651,0.0417 0.49149,0.10326 0.72204,0.13701 0.23055,0.0338 0.64978,0.0544 0.93156,0.0455 0.56613,-0.0178 0.86175,-0.10325 1.234,-0.35619 0.21238,-0.14431 0.58564,-0.56017 0.63136,-0.70355 0.0208,-0.0651 0.0891,-0.0781 0.40707,-0.0768 0.28696,9.2e-4 0.45139,-0.0244 0.66034,-0.10348 0.34811,-0.13177 0.7275,-0.37212 0.92274,-0.58474 l 0.14981,-0.16316 0.48894,-0.009 c 0.46353,-0.008 0.50777,-0.0183 0.84968,-0.18649 0.19838,-0.0975 0.47088,-0.27876 0.60548,-0.40251 l 0.24477,-0.22515 c 0.52474,-0.48928 0.10236,-1.05883 0.90822,-1.12855 0.41926,-0.0743 0.82587,-0.27941 1.11149,-0.56057 0.64666,-0.63654 1.14091,-2.30951 1.31331,-4.44536 0.0614,-0.7613 0.0256,-2.31988 -0.077,-3.34242 -0.0632,-0.62874 -0.24296,-1.50064 -0.37182,-2.46716 -0.1634,-0.77862 -0.48023,-1.92135 -0.76269,-2.74972 -0.26847,-0.78736 -0.80248,-2.12217 -1.12996,-2.82504 -0.0767,-0.16468 -0.27097,-0.59412 -0.43181,-0.95457 -0.16082,-0.36044 -0.47549,-1.05375 -0.69929,-1.54045 -2.13441,-4.64189 -2.54715,-5.74649 -3.20938,-8.59284 -0.11621,-0.49951 -0.30661,-1.40069 -0.42328,-2.00267 -0.30031,-1.54966 -0.34075,-1.73549 -0.4932,-2.26617 -0.24122,-0.83964 -0.83443,-2.20507 -0.95798,-2.20507 z"
             id="path86315-2" />
        </g>
      </g>
    </g>
  </g>
</svg>
